<svg class="svg-icon" style="width: 1.1240234375em; height: 1em;vertical-align: middle;fill: currentColor;overflow: hidden;" viewBox="0 0 1151 1024" version="1.1" xmlns="http://www.w3.org/2000/svg"><path d="M518.546565 35.621369L387.960022 300.394085 95.790129 342.789717c-52.394601 7.599217-73.392437 72.192561-35.396352 109.188748l211.378218 205.978775-49.994848 290.970016c-8.999073 52.194622 45.99526 91.990521 92.790438 67.393055L575.940651 879.134448l261.373066 137.385843c46.595199 24.597465 101.789511-14.998454 92.790439-67.393056l-49.994849-290.970016 211.378219-205.978775c37.996085-36.996188 16.998248-101.589532-35.396353-109.188748L763.92128 300.394085 633.334737 35.621369C609.937148-11.773747 542.144134-11.973726 518.546565 35.621369zM512.147225 319.992066h127.986811c9.399031 0 16.798269 8.199155 15.998352 17.198228l-15.998352 223.976919c-0.599938 8.399134-7.599217 14.798475-15.998351 14.798476h-95.990109c-8.399134 0-15.398413-6.399341-15.998351-14.798476l-15.998352-223.976919c-0.999897-9.399031 6.999279-17.198228 15.998352-17.198228zM575.940651 783.944257c-44.195446 0-79.991757-35.796311-79.991757-79.991757s35.796311-79.991757 79.991757-79.991757 79.991757 35.796311 79.991757 79.991757-35.796311 79.991757-79.991757 79.991757z"  /></svg>