<svg xmlns="http://www.w3.org/2000/svg" version="1.1" width="549px" height="512px" style="shape-rendering:geometricPrecision; text-rendering:geometricPrecision; image-rendering:optimizeQuality; fill-rule:evenodd; clip-rule:evenodd;" xmlns:xlink="http://www.w3.org/1999/xlink">
<g><path style="opacity:0.985" fill="#ffa14a" d="M 344.5,-0.5 C 349.167,-0.5 353.833,-0.5 358.5,-0.5C 367.25,2.41563 373.25,8.24896 376.5,17C 386.602,13.0108 396.269,14.0108 405.5,20C 416.082,31.2332 417.249,43.3999 409,56.5C 404.651,60.6816 400.485,65.0149 396.5,69.5C 412.102,78.5683 415.935,91.2349 408,107.5C 405.982,109.35 404.149,111.35 402.5,113.5C 419.334,132.161 434.834,151.828 449,172.5C 473.473,157.437 497.639,157.937 521.5,174C 546.264,196.823 551.097,223.323 536,253.5C 516.032,281.493 490.032,289.16 458,276.5C 434.375,317.074 398.875,337.074 351.5,336.5C 304.425,336.644 269.092,316.644 245.5,276.5C 165.169,275.667 84.8354,275.167 4.5,275C 2.67694,274.003 1.01027,272.836 -0.5,271.5C -0.5,207.5 -0.5,143.5 -0.5,79.5C 0.646381,77.525 2.31305,76.025 4.5,75C 103.167,74.6667 201.833,74.3333 300.5,74C 302.705,72.294 305.038,70.794 307.5,69.5C 303.182,64.6815 298.682,60.0148 294,55.5C 286.505,41.9093 288.338,29.7427 299.5,19C 308.256,13.7235 317.256,13.2235 326.5,17.5C 330.242,9.0913 336.242,3.0913 344.5,-0.5 Z M 349.5,17.5 C 351.989,17.2978 354.323,17.7978 356.5,19C 361.835,36.0046 372.669,40.8379 389,33.5C 396.148,35.1358 397.815,39.1358 394,45.5C 386.5,53 379,60.5 371.5,68C 358.5,68.6667 345.5,68.6667 332.5,68C 323.969,59.8034 315.802,51.3034 308,42.5C 307.341,34.8847 310.841,32.0514 318.5,34C 332.576,39.5456 341.742,35.0456 346,20.5C 347.145,19.3636 348.312,18.3636 349.5,17.5 Z M 314.5,86.5 C 339.502,86.3334 364.502,86.5 389.5,87C 394.321,90.601 394.654,94.601 390.5,99C 364.833,99.6667 339.167,99.6667 313.5,99C 309.286,94.3615 309.619,90.1948 314.5,86.5 Z M 294.5,104.5 C 216.668,105.499 138.668,105.833 60.5,105.5C 58.2186,106.207 56.0519,107.207 54,108.5C 52.1388,112.654 50.8055,116.987 50,121.5C 49.044,122.579 48.2106,123.745 47.5,125C 43.156,127.506 38.4894,129.172 33.5,130C 31.5125,131.319 30.3459,133.152 30,135.5C 29.3333,162.167 29.3333,188.833 30,215.5C 32.858,220.798 37.358,223.298 43.5,223C 49.3203,226.47 52.1536,231.637 52,238.5C 52.7845,240.286 53.9512,241.786 55.5,243C 115.775,244.489 176.108,244.989 236.5,244.5C 236.33,248.644 236.997,252.644 238.5,256.5C 164.836,257.5 91.1697,257.833 17.5,257.5C 17.5,202.5 17.5,147.5 17.5,92.5C 108.833,92.5 200.167,92.5 291.5,92.5C 291.308,96.9019 292.308,100.902 294.5,104.5 Z M 321.5,118.5 C 341.503,118.333 361.503,118.5 381.5,119C 401.42,139.87 419.42,162.203 435.5,186C 420.889,207.733 419.722,230.233 432,253.5C 434.931,258.267 438.431,262.601 442.5,266.5C 427.101,294.701 403.435,311.534 371.5,317C 339.423,322.189 310.423,315.189 284.5,296C 250.701,264.787 244.867,228.953 267,188.5C 271.333,181.833 275.667,175.167 280,168.5C 293.291,151.376 307.124,134.71 321.5,118.5 Z M 68.5,124.5 C 142.834,124.333 217.167,124.5 291.5,125C 275.405,142.759 261.238,161.926 249,182.5C 241.582,195.921 237.082,210.255 235.5,225.5C 179.829,225.833 124.163,225.5 68.5,224.5C 65.1408,215.141 58.8074,208.807 49.5,205.5C 48.3336,185.508 48.1669,165.508 49,145.5C 58.81,141.525 65.31,134.525 68.5,124.5 Z M 480.5,180.5 C 477.079,182.595 474.745,185.595 473.5,189.5C 460.373,196.445 456.873,206.778 463,220.5C 464.833,222.333 466.667,224.167 468.5,226C 462.468,226.699 459.135,230.032 458.5,236C 459.608,245.279 464.608,251.446 473.5,254.5C 474.745,258.405 477.079,261.405 480.5,263.5C 456.755,259.918 443.755,246.085 441.5,222C 443.755,197.915 456.755,184.082 480.5,180.5 Z M 487.5,180.5 C 511.247,184.084 524.247,197.917 526.5,222C 524.254,246.077 511.254,259.91 487.5,263.5C 490.721,261.441 493.055,258.608 494.5,255C 508.738,249.019 512.904,238.852 507,224.5C 504.404,220.61 500.904,217.777 496.5,216C 508.634,214.228 511.467,208.062 505,197.5C 502.21,193.874 498.71,191.208 494.5,189.5C 493.234,185.579 490.901,182.579 487.5,180.5 Z M 483.5,205.5 C 485.086,206.148 486.753,206.648 488.5,207C 490.167,209.333 491.833,211.667 493.5,214C 488.838,213.4 484.171,212.4 479.5,211C 478.549,210.282 478.383,209.449 479,208.5C 480.409,207.219 481.909,206.219 483.5,205.5 Z M 474.5,229.5 C 478.851,230.17 483.184,231.004 487.5,232C 489.116,232.615 490.449,233.615 491.5,235C 483.691,240.127 478.025,238.294 474.5,229.5 Z"/></g>
<g><path style="font-weight: bold;opacity:0.977" fill="#ffa14a" d="M 479.5,18.5 C 511.804,18.6574 532.97,33.9907 543,64.5C 548.688,97.6267 536.521,121.46 506.5,136C 474.658,145.832 449.491,136.999 431,109.5C 419.117,84.6675 421.451,61.3341 438,39.5C 449.419,27.5407 463.253,20.5407 479.5,18.5 Z M 476.5,37.5 C 482.442,37.2116 482.775,38.0449 477.5,40C 476.283,41.6477 475.45,43.481 475,45.5C 460.302,53.2601 456.636,64.5934 464,79.5C 465.558,81.3589 467.391,82.8589 469.5,84C 462.519,83.488 458.852,86.6546 458.5,93.5C 460.132,102.64 465.299,108.973 474,112.5C 475.012,116.719 477.512,119.552 481.5,121C 464.196,120.053 452.029,111.553 445,95.5C 437.449,66.2635 447.949,46.9302 476.5,37.5 Z M 497.5,73.5 C 505.745,73.0125 509.245,68.6792 508,60.5C 505.5,54 501,49.5 494.5,47C 493.202,42.7058 490.535,39.7058 486.5,38C 511.072,40.7416 524.405,54.575 526.5,79.5C 524.405,104.425 511.072,118.258 486.5,121C 490.403,119.385 493.069,116.552 494.5,112.5C 509.534,105.901 513.367,95.2341 506,80.5C 503.559,77.5464 500.725,75.2131 497.5,73.5 Z M 493.5,71.5 C 490.478,71.196 487.478,70.696 484.5,70C 482.003,69.5883 480.003,68.4216 478.5,66.5C 480.891,63.7612 483.891,62.9278 487.5,64C 489.629,66.4392 491.629,68.9392 493.5,71.5 Z M 474.5,87.5 C 474.56,86.9569 474.893,86.6236 475.5,86.5C 478.748,87.6454 482.081,88.4787 485.5,89C 487.997,89.4117 489.997,90.5784 491.5,92.5C 486.714,96.4407 481.88,96.4407 477,92.5C 476.626,90.5087 475.793,88.842 474.5,87.5 Z"/></g>
<g><path style="font-weight: bold;opacity:0.127" fill="#ffa14a" d="M 294.5,104.5 C 295.043,104.56 295.376,104.893 295.5,105.5C 217.001,106.832 138.668,106.832 60.5,105.5C 138.668,105.833 216.668,105.499 294.5,104.5 Z"/></g>
<g><path style="font-weight: bold;opacity:0.975" fill="#ffa14a" d="M 191.5,130.5 C 198.871,129.876 202.871,133.209 203.5,140.5C 214.733,143.566 219.9,150.899 219,162.5C 215.446,167.451 210.946,168.618 205.5,166C 203.38,163.591 201.38,161.091 199.5,158.5C 197.833,157.833 196.167,157.167 194.5,156.5C 192.885,157.154 191.218,157.654 189.5,158C 186.833,160 186.833,162 189.5,164C 197.684,165.298 205.35,167.965 212.5,172C 222.471,180.94 223.971,191.107 217,202.5C 213.483,206.184 209.316,208.851 204.5,210.5C 201.775,218.697 196.442,221.197 188.5,218C 186.647,215.429 184.981,212.762 183.5,210C 172.105,205.698 166.938,197.532 168,185.5C 172.098,180.242 176.931,179.409 182.5,183C 185.741,192.693 192.075,195.526 201.5,191.5C 203.05,188.871 202.384,187.037 199.5,186C 189.43,184.871 180.596,181.037 173,174.5C 165.361,159.723 168.861,148.389 183.5,140.5C 184.948,138.333 186.115,136 187,133.5C 188.652,132.601 190.152,131.601 191.5,130.5 Z"/></g>
<g><path style="opacity:0.976" fill="#ffa14a" d="M 350.5,154.5 C 358.717,155.583 362.05,160.249 360.5,168.5C 373.957,171.289 382.623,179.289 386.5,192.5C 385.109,199.861 380.776,202.694 373.5,201C 371.714,200.215 370.214,199.049 369,197.5C 362.483,185.22 352.983,182.387 340.5,189C 336.87,192.05 335.703,195.883 337,200.5C 338.167,203 340,204.833 342.5,206C 351.198,208.206 359.865,210.54 368.5,213C 387.351,222.198 392.517,236.364 384,255.5C 377.968,263.099 370.135,267.432 360.5,268.5C 361.842,278.659 357.509,282.826 347.5,281C 343.009,278.067 341.342,273.901 342.5,268.5C 327.265,265.598 317.932,256.598 314.5,241.5C 316.566,233.134 321.566,230.634 329.5,234C 332.231,236.626 334.064,239.793 335,243.5C 345.986,253.757 357.319,254.09 369,244.5C 370.467,237.63 367.967,232.796 361.5,230C 354.564,228.079 347.564,226.413 340.5,225C 320.07,217.641 313.57,203.808 321,183.5C 325.859,175.133 333.026,170.133 342.5,168.5C 341.096,161.29 343.762,156.623 350.5,154.5 Z"/></g>
<g><path style="opacity:0.983" fill="#ffa14a" d="M 86.5,165.5 C 98.5046,165.333 110.505,165.5 122.5,166C 130.381,168.941 132.215,174.108 128,181.5C 126.829,182.893 125.329,183.727 123.5,184C 110.833,184.667 98.1667,184.667 85.5,184C 79.8275,181.232 77.9942,176.732 80,170.5C 81.8049,168.174 83.9716,166.508 86.5,165.5 Z"/></g>
<g><path style="opacity:0.976" fill="#ffa14a" d="M 480.5,180.5 C 482.833,180.5 485.167,180.5 487.5,180.5C 490.901,182.579 493.234,185.579 494.5,189.5C 498.71,191.208 502.21,193.874 505,197.5C 511.467,208.062 508.634,214.228 496.5,216C 500.904,217.777 504.404,220.61 507,224.5C 512.904,238.852 508.738,249.019 494.5,255C 493.055,258.608 490.721,261.441 487.5,263.5C 485.167,263.5 482.833,263.5 480.5,263.5C 477.079,261.405 474.745,258.405 473.5,254.5C 464.608,251.446 459.608,245.279 458.5,236C 459.135,230.032 462.468,226.699 468.5,226C 466.667,224.167 464.833,222.333 463,220.5C 456.873,206.778 460.373,196.445 473.5,189.5C 474.745,185.595 477.079,182.595 480.5,180.5 Z M 483.5,205.5 C 481.909,206.219 480.409,207.219 479,208.5C 478.383,209.449 478.549,210.282 479.5,211C 484.171,212.4 488.838,213.4 493.5,214C 491.833,211.667 490.167,209.333 488.5,207C 486.753,206.648 485.086,206.148 483.5,205.5 Z M 474.5,229.5 C 478.025,238.294 483.691,240.127 491.5,235C 490.449,233.615 489.116,232.615 487.5,232C 483.184,231.004 478.851,230.17 474.5,229.5 Z"/></g>
<g><path style="opacity:0.973" fill="#ffa14a" d="M 138.5,511.5 C 134.5,511.5 130.5,511.5 126.5,511.5C 121.983,509.977 118.15,507.311 115,503.5C 91.3333,461.5 67.6667,419.5 44,377.5C 41.369,367.826 43.869,359.659 51.5,353C 60.6016,347.7 69.7683,342.533 79,337.5C 94.9245,333.802 105.591,339.802 111,355.5C 136.094,340.367 161.594,325.867 187.5,312C 200.214,307.331 213.214,306.331 226.5,309C 255.156,320.219 284.49,329.219 314.5,336C 333.371,345.245 340.205,360.078 335,380.5C 365.412,363.379 395.579,345.879 425.5,328C 435.298,322.601 445.631,318.601 456.5,316C 491.039,313.867 504.872,329.701 498,363.5C 495.284,370.881 490.451,376.381 483.5,380C 434.167,410.333 384.833,440.667 335.5,471C 320.947,479.202 305.447,481.702 289,478.5C 252.143,468.745 215.309,459.245 178.5,450C 175.032,451.97 171.699,454.136 168.5,456.5C 171.254,461.008 173.754,465.674 176,470.5C 178.529,481.258 175.363,489.758 166.5,496C 157.234,501.463 147.9,506.629 138.5,511.5 Z M 206.5,325.5 C 211.58,325.25 216.58,325.75 221.5,327C 250.886,338.351 280.886,347.684 311.5,355C 318.603,360.634 320.103,367.467 316,375.5C 314.269,377.617 312.102,379.117 309.5,380C 304.109,380.692 298.775,380.359 293.5,379C 277.42,374.438 261.253,370.272 245,366.5C 236.669,367.821 234.002,372.488 237,380.5C 238.214,382.049 239.714,383.215 241.5,384C 264.455,391.239 287.788,396.905 311.5,401C 322.494,402.279 333.161,400.945 343.5,397C 373.161,380.505 402.494,363.505 431.5,346C 442.088,339.249 453.588,335.083 466,333.5C 480.778,336.05 485.445,344.383 480,358.5C 478.5,360 477,361.5 475.5,363C 423.166,395.502 370.5,427.502 317.5,459C 310.315,461.275 302.982,461.942 295.5,461C 257.795,451.157 220.128,441.157 182.5,431C 179.833,430.333 177.167,430.333 174.5,431C 169.5,433.833 164.5,436.667 159.5,439.5C 146.01,417.195 133.01,394.528 120.5,371.5C 141.037,359.134 161.703,346.967 182.5,335C 190.277,330.933 198.277,327.766 206.5,325.5 Z M 85.5,354.5 C 87.1439,354.286 88.6439,354.62 90,355.5C 113.087,396.005 135.92,436.672 158.5,477.5C 157.687,478.814 156.687,479.981 155.5,481C 148.167,485 140.833,489 133.5,493C 132.216,493.684 131.049,493.517 130,492.5C 107.587,452.005 84.92,411.672 62,371.5C 61.3162,370.216 61.4829,369.049 62.5,368C 70.5587,363.978 78.2253,359.478 85.5,354.5 Z"/></g>
<g><path style="opacity:0.944" fill="#ffa14a" d="M 81.5,368.5 C 90.8605,369.02 94.0271,373.687 91,382.5C 86.9731,387.061 82.4731,387.561 77.5,384C 73.4255,377.396 74.7589,372.229 81.5,368.5 Z"/></g>
</svg>